<?xml version="1.0" encoding="utf-8"?>
<!-- Generator: Adobe Illustrator 16.0.0, SVG Export Plug-In . SVG Version: 6.00 Build 0)  -->
<!DOCTYPE svg PUBLIC "-//W3C//DTD SVG 1.1//EN" "http://www.w3.org/Graphics/SVG/1.1/DTD/svg11.dtd">
<svg version="1.1" xmlns="http://www.w3.org/2000/svg" xmlns:xlink="http://www.w3.org/1999/xlink" x="0px" y="0px"
	 width="512px" height="512px" viewBox="0 0 512 512" enable-background="new 0 0 512 512" xml:space="preserve">
<g>
	<g>
		<path d="M188.327,211.847h58.631v58.631h-58.631V211.847z M276.273,211.847h58.631v58.631h-58.631V211.847z M364.219,211.847
			h58.63v58.631h-58.63V211.847z M100.381,387.738h58.63v58.632h-58.63V387.738z M188.327,387.738h58.631v58.632h-58.631V387.738z
			 M276.273,387.738h58.631v58.632h-58.631V387.738z M188.327,299.793h58.631v58.631h-58.631V299.793z M276.273,299.793h58.631
			v58.631h-58.631V299.793z M364.219,299.793h58.63v58.631h-58.63V299.793z M100.381,299.793h58.63v58.631h-58.63V299.793z
			 M422.849,35.955V65.27h-58.63V35.955H159.011V65.27h-58.63V35.955H41.75V505H481.48V35.955H422.849z M452.165,475.685h-381.1
			V153.216h381.1V475.685z"/>
	</g>
	<g>
		<rect x="105.118" y="5.75" width="47.206" height="53.363"/>
		<rect x="369.88" y="5.75" width="47.205" height="53.363"/>
	</g>
</g>
</svg>
