<?xml version="1.0" encoding="utf-8"?>
<!-- Generator: Adobe Illustrator 16.0.0, SVG Export Plug-In . SVG Version: 6.00 Build 0)  -->
<!DOCTYPE svg PUBLIC "-//W3C//DTD SVG 1.1//EN" "http://www.w3.org/Graphics/SVG/1.1/DTD/svg11.dtd">
<svg version="1.1" xmlns="http://www.w3.org/2000/svg" xmlns:xlink="http://www.w3.org/1999/xlink" x="0px" y="0px"
	 width="512px" height="512px" viewBox="0 0 512 512" enable-background="new 0 0 512 512" xml:space="preserve">
<g>
	<path d="M482.409,132.885v-30.622l-4.404-1.728c-1.539-0.604-37.532-14.564-85.502-14.564
		c-51.408,0-95.667,15.658-131.705,46.552c-36.023-30.894-80.312-46.552-131.713-46.552c-47.993,0-83.97,13.961-85.471,14.564
		l-4.45,1.728v28.359c-14.52,2.722-23.57,7.588-23.57,15.53c0,41.332,0,292.208,0,292.208h215.238
		c7.445,6.667,18.336,10.86,30.509,10.86c12.174,0,23.065-4.193,30.486-10.86h209.8c0,0,0-277.704,0-292.208
		C501.627,139.697,494.295,135.48,482.409,132.885z M258.467,415.312c-17.859-7.392-79.398-30.742-141.035-30.742
		c-24.354,0-45.934,3.711-64.299,11.102V111.932c10.717-3.582,39.945-12.029,75.937-12.029c47.329,0,87.997,14.323,121.207,42.215
		v169.38l8.191-9.021V415.312z M468.44,395.762c-19.73-7.935-42.388-11.948-67.49-11.948c-61.605,0-120.225,23.624-137.875,31.377
		V302.447l8.237,9.051v-169.38c33.186-27.907,73.855-42.215,121.19-42.215c35.873,0,65.197,8.462,75.938,12.029V395.762
		L468.44,395.762z"/>
	<path d="M80.729,149.252l2.89,10.922c72.679-19.278,138.064,16.405,138.728,16.759l5.491-9.866
		C225.04,165.506,157.89,128.805,80.729,149.252z"/>
	<path d="M80.729,181.233l2.89,10.921c72.679-19.294,138.064,16.39,138.728,16.744l5.491-9.858
		C225.04,197.464,157.89,160.777,80.729,181.233z"/>
	<path d="M80.729,211.274l2.89,10.921c72.679-19.264,138.064,16.405,138.728,16.759l5.491-9.873
		C225.04,227.528,157.89,190.842,80.729,211.274z"/>
	<path d="M80.729,244.205l2.89,10.92c72.679-19.27,138.064,16.406,138.728,16.768l5.491-9.858
		C225.04,260.443,157.89,223.741,80.729,244.205z"/>
	<path d="M80.729,274.713l2.89,10.922c72.679-19.264,138.064,16.39,138.728,16.781l5.491-9.895
		C225.04,290.982,157.89,254.281,80.729,274.713z"/>
	<path d="M80.729,306.067l2.89,10.921c72.679-19.277,138.064,16.383,138.728,16.744l5.491-9.895
		C225.04,322.299,157.89,285.619,80.729,306.067z"/>
	<path d="M80.729,337.474l2.89,10.922c72.679-19.278,138.064,16.412,138.728,16.743l5.491-9.834
		C225.04,353.735,157.89,317.019,80.729,337.474z"/>
	<path d="M302.568,177.771c0.663-0.354,66.041-36.022,138.72-16.759l2.896-10.921
		c-77.173-20.433-144.301,16.269-147.106,17.822L302.568,177.771z"/>
	<path d="M297.077,199.893l5.491,9.851c0.663-0.354,66.041-36.038,138.72-16.744l2.896-10.937
		C367.011,161.614,299.883,198.301,297.077,199.893z"/>
	<path d="M297.077,229.919l5.491,9.873c0.663-0.37,66.041-36.038,138.72-16.773l2.896-10.922
		C367.011,191.671,299.883,228.358,297.077,229.919z"/>
	<path d="M297.077,262.863l5.491,9.859c0.663-0.355,66.041-36.023,138.72-16.745l2.896-10.92
		C367.011,224.571,299.883,261.272,297.077,262.863z"/>
	<path d="M297.077,293.365l5.491,9.896c0.663-0.362,66.041-36.038,138.72-16.768l2.896-10.921
		C367.011,255.125,299.883,291.797,297.077,293.365z"/>
	<path d="M297.077,324.712l5.491,9.865c0.663-0.362,66.041-36.022,138.72-16.743l2.896-10.922
		C367.011,286.465,299.883,323.143,297.077,324.712z"/>
	<path d="M297.077,356.119l5.491,9.865c0.663-0.332,66.041-36.054,138.72-16.744l2.896-10.922
		C367.011,317.863,299.883,354.58,297.077,356.119z"/>
</g>
</svg>
