<?xml version="1.0" encoding="utf-8"?>
<!-- Generator: Adobe Illustrator 19.0.0, SVG Export Plug-In . SVG Version: 6.00 Build 0)  -->
<svg version="1.1" id="Capa_1" xmlns="http://www.w3.org/2000/svg" xmlns:xlink="http://www.w3.org/1999/xlink" x="0px" y="0px"
	 viewBox="-39.8 10.2 585.7 354.2" style="enable-background:new -39.8 10.2 585.7 354.2;" xml:space="preserve">
<g>
	<path d="M531.4,151.9L425.1,45.6c-19.5-19.5-58-35.4-85.5-35.4l-329.2,0c-27.6,0-50.1,22.5-50.1,50.1l0,254
		c0,27.6,22.5,50.1,50.1,50.1l329.2,0c27.6,0,66-15.9,85.5-35.4l106.3-106.3C550.8,203.3,550.8,171.4,531.4,151.9z M366.4,222.7
		c-19.5-19.5-19.5-51.2,0-70.7c19.5-19.5,51.2-19.5,70.7,0s19.5,51.2,0,70.7C417.6,242.2,386,242.2,366.4,222.7z"/>
</g>
</svg>
