<?xml version="1.0" encoding="utf-8"?>
<!-- Generator: Adobe Illustrator 16.0.0, SVG Export Plug-In . SVG Version: 6.00 Build 0)  -->
<!DOCTYPE svg PUBLIC "-//W3C//DTD SVG 1.1//EN" "http://www.w3.org/Graphics/SVG/1.1/DTD/svg11.dtd">
<svg version="1.1" xmlns="http://www.w3.org/2000/svg" xmlns:xlink="http://www.w3.org/1999/xlink" x="0px" y="0px"
	 width="512px" height="512px" viewBox="0 0 512 512" enable-background="new 0 0 512 512" xml:space="preserve">
<g>
	<g>
		<path d="M500.516,404.625l-79.067-79.078c-15.747-15.684-41.831-15.203-58.129,1.095l-39.832,39.832
			c-2.515-1.393-5.12-2.841-7.86-4.378c-25.153-13.938-59.584-33.041-95.817-69.299c-36.334-36.332-55.463-70.819-69.438-95.99
			c-1.483-2.668-2.894-5.236-4.286-7.678l26.735-26.7l13.142-13.159c16.326-16.326,16.778-42.402,1.06-58.129l-79.07-79.088
			C92.242-3.657,66.148-3.179,49.823,13.146L27.537,35.559l0.613,0.606c-7.47,9.533-13.72,20.531-18.36,32.389
			c-4.286,11.287-6.955,22.06-8.176,32.849c-10.438,86.558,29.114,165.661,136.457,273.013
			c148.377,148.368,267.956,137.162,273.111,136.611c11.244-1.34,22.005-4.026,32.95-8.277
			c11.757-4.594,22.748-10.826,32.271-18.279l0.487,0.425l22.576-22.106C515.758,446.466,516.228,420.39,500.516,404.625z
			 M481.903,445.21l-9.949,9.932l-3.963,3.809c-6.24,6.033-17.041,14.507-32.813,20.676c-8.954,3.447-17.782,5.661-26.764,6.73
			c-1.13,0.108-113.6,9.704-252.798-129.483C37.259,238.521,18.292,170.324,26.243,104.271c0.995-8.754,3.191-17.564,6.702-26.771
			c6.222-15.863,14.688-26.655,20.675-32.905l13.756-13.892c6.629-6.647,16.968-7.155,23.028-1.094l79.067,79.067
			c6.051,6.068,5.573,16.407-1.066,23.074l-53.398,53.345l4.929,8.294c2.739,4.622,5.636,9.803,8.729,15.431
			c14.688,26.491,34.785,62.751,73.597,101.527c38.71,38.729,74.917,58.81,101.327,73.46c5.706,3.156,10.917,6.06,15.593,8.845
			l8.313,4.929l53.362-53.381c6.657-6.629,17.031-7.119,23.092-1.076l79.032,79.049C489.022,428.231,488.542,438.571,481.903,445.21
			z"/>
	</g>
</g>
</svg>
