<?xml version="1.0" encoding="utf-8"?>
<!-- Generator: Adobe Illustrator 16.0.0, SVG Export Plug-In . SVG Version: 6.00 Build 0)  -->
<!DOCTYPE svg PUBLIC "-//W3C//DTD SVG 1.1//EN" "http://www.w3.org/Graphics/SVG/1.1/DTD/svg11.dtd">
<svg version="1.1" xmlns="http://www.w3.org/2000/svg" xmlns:xlink="http://www.w3.org/1999/xlink" x="0px" y="0px"
	 width="520px" height="180px" viewBox="0 0 520 180" enable-background="new 0 0 520 180" xml:space="preserve">
<g>
	<path d="M77.534,89.398c-2.918-4.056-6.009-7.333-6.009-14.804V49.719c0-10.52,0.746-20.198-7.017-27.459
		c-6.133-5.878-16.277-7.942-24.058-7.942c-15.18,0-32.114,5.657-35.694,24.428c-0.371,2.004,1.098,3.056,2.369,3.348l15.519,1.659
		c1.414-0.06,2.482-1.474,2.763-2.918c1.306-6.468,6.754-9.583,12.84-9.583c3.276,0,6.994,1.211,8.945,4.159
		c2.225,3.276,1.921,7.77,1.921,11.559v2.052c-9.243,1.074-21.338,1.748-30.013,5.562C9.129,58.884,2.077,67.709,2.077,80.657
		c0,16.587,10.46,24.882,23.893,24.882c11.36,0,17.572-2.674,26.319-11.611c2.9,4.199,3.849,6.254,9.153,10.656
		c1.2,0.634,2.714,0.563,3.777-0.368l0.048,0.022c3.181-2.806,8.956-7.875,12.232-10.592
		C78.793,92.538,78.572,90.824,77.534,89.398z M49.114,65.274c0,6.217,0.167,11.403-2.983,16.921
		c-2.53,4.499-6.552,7.25-11.045,7.25c-6.122,0-9.678-4.654-9.678-11.558c0-13.604,12.178-16.074,23.707-16.074V65.274z
		 M89.999,101.685v-81.92c0-1.634,1.384-2.942,3.079-2.942h14.887c1.552,0.06,2.799,1.254,2.895,2.733V30.26h0.268
		c3.902-10.346,11.194-15.173,21.033-15.173c9.983,0,16.242,4.838,20.711,15.173c3.878-10.346,12.65-15.173,22.071-15.173
		c6.671,0,13.993,2.763,18.468,8.957c5.042,6.891,4.016,16.897,4.016,25.687l-0.024,51.69c0,1.622-1.366,2.962-3.066,2.962h-15.944
		c-1.592-0.122-2.875-1.385-2.875-2.962V57.989c0-3.455,0.304-12.071-0.455-15.358c-1.181-5.501-4.749-7.053-9.379-7.053
		c-3.867,0-7.907,2.578-9.548,6.712c-1.622,4.129-1.479,11.045-1.479,15.699v43.432c0,1.622-1.355,2.962-3.08,2.962h-15.932
		c-1.617-0.122-2.888-1.385-2.888-2.962V57.989c0-9.141,1.48-22.579-9.857-22.579c-11.462,0-11.003,13.109-11.003,22.579v43.432
		c0,1.622-1.367,2.962-3.067,2.962H92.863C91.336,104.287,90.112,103.14,89.999,101.685z M322.045,135.863
		c-29.979,22.089-73.387,33.855-110.805,33.855c-52.437,0-99.635-19.404-135.353-51.684c-2.798-2.531-0.292-5.981,3.067-4
		c38.528,22.435,86.215,35.909,135.424,35.909c33.224,0,69.754-6.861,103.335-21.122
		C322.785,126.697,326.998,132.188,322.045,135.863z M360.231,86.755v12.519c0,1.707-1.847,3.711-3.853,2.687
		c-16.136-8.456-37.543-9.399-55.396,0.07c-1.801,1.002-3.76-0.968-3.76-2.674V87.465c0-1.902,0.025-5.155,1.936-8.049
		l31.504-45.169h-27.426c-1.704,0-3.029-1.2-3.029-2.947V19.58c0-1.778,1.325-2.965,2.959-2.965h52.461
		c1.694,0,3.031,1.21,3.031,2.965v10.037c0,1.683-1.431,3.872-3.938,7.369l-27.223,38.808c10.121-0.256,20.768,1.26,29.93,6.415
		C359.507,83.372,360.054,85.084,360.231,86.755z M258.373,49.021c-9.255,1.062-21.35,1.736-30.015,5.549
		c-10.005,4.314-17.01,13.14-17.01,26.087c0,16.587,10.436,24.882,23.868,24.882c11.336,0,17.572-2.674,26.327-11.611
		c2.874,4.199,3.843,6.254,9.141,10.656c1.216,0.634,2.744,0.563,3.793-0.368l0.025,0.022c3.197-2.806,8.974-7.875,12.22-10.592
		c1.29-1.073,1.097-2.798,0.071-4.224c-2.912-4.058-5.989-7.333-5.989-14.798V49.743c0-10.52,0.727-20.198-7.042-27.46
		c-6.11-5.877-16.272-7.942-24.029-7.942c-15.181,0-32.156,5.656-35.694,24.428c-0.382,2.005,1.063,3.056,2.369,3.348l15.472,1.666
		c1.438-0.066,2.5-1.48,2.786-2.924c1.307-6.462,6.743-9.583,12.83-9.583c3.287,0,7.017,1.211,8.932,4.159
		c2.262,3.275,1.957,7.769,1.957,11.557L258.373,49.021L258.373,49.021z M258.373,65.274c0,6.217,0.167,11.403-2.996,16.921
		c-2.518,4.499-6.563,7.25-11.008,7.25c-6.146,0-9.744-4.654-9.744-11.558c0-13.604,12.197-16.074,23.749-16.074V65.274z
		 M403.804,15.099c-23.093,0-35.908,19.834-35.908,45.324c0,25.341,12.648,45.676,35.908,45.676
		c22.34,0,36.505-19.821,36.505-44.812C440.357,35.445,427.516,15.099,403.804,15.099z M403.804,89.226
		c-12.519,0-12.375-21.374-12.375-31.38c0-9.983,0.752-26.022,12.493-26.022c5.063,0,8.666,2.226,10.443,7.936
		c2.099,6.546,2.388,14.81,2.388,21.726C416.801,71.981,416.204,89.226,403.804,89.226z M513.678,24.753
		c4.178,6.557,4.178,17.572,4.178,25.502v51.574c-0.215,1.43-1.504,2.588-3.104,2.588h-16.015c-1.432-0.13-2.695-1.206-2.815-2.588
		V57.332c0-8.956,1.049-22.071-9.952-22.071c-3.913,0-7.473,2.602-9.236,6.552c-2.27,5.012-2.554,9.982-2.554,15.519v44.089
		c-0.025,1.648-1.409,2.984-3.13,2.984H455.18c-1.622-0.118-2.889-1.407-2.889-2.984l-0.023-81.937
		c0.142-1.502,1.455-2.673,3.077-2.673h14.801c1.384,0.06,2.553,1.014,2.862,2.297v12.524h0.262
		c4.441-11.206,10.741-16.546,21.744-16.546C502.161,15.099,509.191,17.688,513.678,24.753z M347.285,111.853
		c3.284,4.08-0.849,32.269-16.956,45.682c-2.471,2.054-4.845,0.955-3.725-1.79c3.627-9.01,11.72-29.249,7.889-34.154
		c-3.808-4.88-25.323-2.303-34.967-1.169c-2.947,0.346-3.377-2.208-0.751-4.059C315.911,104.335,344.027,107.818,347.285,111.853z"
		/>
</g>
</svg>
