<?xml version="1.0" encoding="UTF-8"?><!DOCTYPE svg PUBLIC "-//W3C//DTD SVG 1.1//EN" "http://www.w3.org/Graphics/SVG/1.1/DTD/svg11.dtd"><svg xmlns="http://www.w3.org/2000/svg"><symbol id="shapes-icon-amazon" viewBox="0 0 520 180"><path d="M77.534 89.398c-2.918-4.056-6.009-7.333-6.009-14.804V49.719c0-10.52.746-20.198-7.017-27.459-6.133-5.878-16.277-7.942-24.058-7.942-15.18 0-32.114 5.657-35.694 24.428-.371 2.004 1.098 3.056 2.369 3.348l15.519 1.659c1.414-.06 2.482-1.474 2.763-2.918 1.306-6.468 6.754-9.583 12.84-9.583 3.276 0 6.994 1.211 8.945 4.159 2.225 3.276 1.921 7.77 1.921 11.559v2.052C39.87 50.096 27.775 50.77 19.1 54.584c-9.971 4.3-17.023 13.125-17.023 26.073 0 16.587 10.46 24.882 23.893 24.882 11.36 0 17.572-2.674 26.319-11.611 2.9 4.199 3.849 6.254 9.153 10.656 1.2.634 2.714.563 3.777-.368l.048.022c3.181-2.806 8.956-7.875 12.232-10.592 1.294-1.108 1.073-2.822.035-4.248zm-28.42-24.124c0 6.217.167 11.403-2.983 16.921-2.53 4.499-6.552 7.25-11.045 7.25-6.122 0-9.678-4.654-9.678-11.558 0-13.604 12.178-16.074 23.707-16.074v3.461zm40.885 36.411v-81.92c0-1.634 1.384-2.942 3.079-2.942h14.887c1.552.06 2.799 1.254 2.895 2.733V30.26h.268c3.902-10.346 11.194-15.173 21.033-15.173 9.983 0 16.242 4.838 20.711 15.173 3.878-10.346 12.65-15.173 22.071-15.173 6.671 0 13.993 2.763 18.468 8.957 5.042 6.891 4.016 16.897 4.016 25.687l-.024 51.69c0 1.622-1.366 2.962-3.066 2.962h-15.944c-1.592-.122-2.875-1.385-2.875-2.962V57.989c0-3.455.304-12.071-.455-15.358-1.181-5.501-4.749-7.053-9.379-7.053-3.867 0-7.907 2.578-9.548 6.712-1.622 4.129-1.479 11.045-1.479 15.699v43.432c0 1.622-1.355 2.962-3.08 2.962h-15.932c-1.617-.122-2.888-1.385-2.888-2.962V57.989c0-9.141 1.48-22.579-9.857-22.579-11.462 0-11.003 13.109-11.003 22.579v43.432c0 1.622-1.367 2.962-3.067 2.962H92.863c-1.527-.096-2.751-1.243-2.864-2.698zm232.046 34.178c-29.979 22.089-73.387 33.855-110.805 33.855-52.437 0-99.635-19.404-135.353-51.684-2.798-2.531-.292-5.981 3.067-4 38.528 22.435 86.215 35.909 135.424 35.909 33.224 0 69.754-6.861 103.335-21.122 5.072-2.124 9.285 3.367 4.332 7.042zm38.186-49.108v12.519c0 1.707-1.847 3.711-3.853 2.687-16.136-8.456-37.543-9.399-55.396.07-1.801 1.002-3.76-.968-3.76-2.674V87.465c0-1.902.025-5.155 1.936-8.049l31.504-45.169h-27.426c-1.704 0-3.029-1.2-3.029-2.947V19.58c0-1.778 1.325-2.965 2.959-2.965h52.461c1.694 0 3.031 1.21 3.031 2.965v10.037c0 1.683-1.431 3.872-3.938 7.369l-27.223 38.808c10.121-.256 20.768 1.26 29.93 6.415 2.08 1.163 2.627 2.875 2.804 4.546zM258.373 49.021c-9.255 1.062-21.35 1.736-30.015 5.549-10.005 4.314-17.01 13.14-17.01 26.087 0 16.587 10.436 24.882 23.868 24.882 11.336 0 17.572-2.674 26.327-11.611 2.874 4.199 3.843 6.254 9.141 10.656 1.216.634 2.744.563 3.793-.368l.025.022c3.197-2.806 8.974-7.875 12.22-10.592 1.29-1.073 1.097-2.798.071-4.224-2.912-4.058-5.989-7.333-5.989-14.798V49.743c0-10.52.727-20.198-7.042-27.46-6.11-5.877-16.272-7.942-24.029-7.942-15.181 0-32.156 5.656-35.694 24.428-.382 2.005 1.063 3.056 2.369 3.348l15.472 1.666c1.438-.066 2.5-1.48 2.786-2.924 1.307-6.462 6.743-9.583 12.83-9.583 3.287 0 7.017 1.211 8.932 4.159 2.262 3.275 1.957 7.769 1.957 11.557l-.012 2.029zm0 16.253c0 6.217.167 11.403-2.996 16.921-2.518 4.499-6.563 7.25-11.008 7.25-6.146 0-9.744-4.654-9.744-11.558 0-13.604 12.197-16.074 23.749-16.074v3.461zm145.431-50.175c-23.093 0-35.908 19.834-35.908 45.324 0 25.341 12.648 45.676 35.908 45.676 22.34 0 36.505-19.821 36.505-44.812.048-25.842-12.793-46.188-36.505-46.188zm0 74.127c-12.519 0-12.375-21.374-12.375-31.38 0-9.983.752-26.022 12.493-26.022 5.063 0 8.666 2.226 10.443 7.936 2.099 6.546 2.388 14.81 2.388 21.726.048 10.495-.549 27.74-12.949 27.74zm109.874-64.473c4.178 6.557 4.178 17.572 4.178 25.502v51.574c-.215 1.43-1.504 2.588-3.104 2.588h-16.015c-1.432-.13-2.695-1.206-2.815-2.588V57.332c0-8.956 1.049-22.071-9.952-22.071-3.913 0-7.473 2.602-9.236 6.552-2.27 5.012-2.554 9.982-2.554 15.519v44.089c-.025 1.648-1.409 2.984-3.13 2.984h-15.87c-1.622-.118-2.889-1.407-2.889-2.984l-.023-81.937c.142-1.502 1.455-2.673 3.077-2.673h14.801c1.384.06 2.553 1.014 2.862 2.297v12.524h.262c4.441-11.206 10.741-16.546 21.744-16.546 7.147.013 14.177 2.602 18.664 9.667zm-166.393 87.1c3.284 4.08-.849 32.269-16.956 45.682-2.471 2.054-4.845.955-3.725-1.79 3.627-9.01 11.72-29.249 7.889-34.154-3.808-4.88-25.323-2.303-34.967-1.169-2.947.346-3.377-2.208-.751-4.059 17.136-12.028 45.252-8.545 48.51-4.51z"/></symbol><symbol id="shapes-icon-book" viewBox="0 0 512 512"><path d="M482.409 132.885v-30.622l-4.404-1.728c-1.539-.604-37.532-14.564-85.502-14.564-51.408 0-95.667 15.658-131.705 46.552-36.023-30.894-80.312-46.552-131.713-46.552-47.993 0-83.97 13.961-85.471 14.564l-4.45 1.728v28.359c-14.52 2.722-23.57 7.588-23.57 15.53V438.36h215.238c7.445 6.667 18.336 10.86 30.509 10.86 12.174 0 23.065-4.193 30.486-10.86h209.8V146.152c0-6.455-7.332-10.672-19.218-13.267zM258.467 415.312c-17.859-7.392-79.398-30.742-141.035-30.742-24.354 0-45.934 3.711-64.299 11.102v-283.74c10.717-3.582 39.945-12.029 75.937-12.029 47.329 0 87.997 14.323 121.207 42.215v169.38l8.191-9.021v112.835zm209.973-19.55c-19.73-7.935-42.388-11.948-67.49-11.948-61.605 0-120.225 23.624-137.875 31.377V302.447l8.237 9.051v-169.38c33.186-27.907 73.855-42.215 121.19-42.215 35.873 0 65.197 8.462 75.938 12.029v283.83z"/><path d="M80.729 149.252l2.89 10.922c72.679-19.278 138.064 16.405 138.728 16.759l5.491-9.866c-2.798-1.561-69.948-38.262-147.109-17.815zM80.729 181.233l2.89 10.921c72.679-19.294 138.064 16.39 138.728 16.744l5.491-9.858c-2.798-1.576-69.948-38.263-147.109-17.807zM80.729 211.274l2.89 10.921c72.679-19.264 138.064 16.405 138.728 16.759l5.491-9.873c-2.798-1.553-69.948-38.239-147.109-17.807zM80.729 244.205l2.89 10.92c72.679-19.27 138.064 16.406 138.728 16.768l5.491-9.858c-2.798-1.592-69.948-38.294-147.109-17.83zM80.729 274.713l2.89 10.922c72.679-19.264 138.064 16.39 138.728 16.781l5.491-9.895c-2.798-1.539-69.948-38.24-147.109-17.808zM80.729 306.067l2.89 10.921c72.679-19.277 138.064 16.383 138.728 16.744l5.491-9.895c-2.798-1.538-69.948-38.218-147.109-17.77zM80.729 337.474l2.89 10.922c72.679-19.278 138.064 16.412 138.728 16.743l5.491-9.834c-2.798-1.57-69.948-38.286-147.109-17.831zM302.568 177.771c.663-.354 66.041-36.022 138.72-16.759l2.896-10.921c-77.173-20.433-144.301 16.269-147.106 17.822l5.49 9.858zM297.077 199.893l5.491 9.851c.663-.354 66.041-36.038 138.72-16.744l2.896-10.937c-77.173-20.449-144.301 16.238-147.107 17.83zM297.077 229.919l5.491 9.873c.663-.37 66.041-36.038 138.72-16.773l2.896-10.922c-77.173-20.426-144.301 16.261-147.107 17.822zM297.077 262.863l5.491 9.859c.663-.355 66.041-36.023 138.72-16.745l2.896-10.92c-77.173-20.486-144.301 16.215-147.107 17.806zM297.077 293.365l5.491 9.896c.663-.362 66.041-36.038 138.72-16.768l2.896-10.921c-77.173-20.447-144.301 16.225-147.107 17.793zM297.077 324.712l5.491 9.865c.663-.362 66.041-36.022 138.72-16.743l2.896-10.922c-77.173-20.447-144.301 16.231-147.107 17.8zM297.077 356.119l5.491 9.865c.663-.332 66.041-36.054 138.72-16.744l2.896-10.922c-77.173-20.455-144.301 16.262-147.107 17.801z"/></symbol><symbol id="shapes-icon-calendar" viewBox="0 0 512 512"><path d="M188.327 211.847h58.631v58.631h-58.631v-58.631zm87.946 0h58.631v58.631h-58.631v-58.631zm87.946 0h58.63v58.631h-58.63v-58.631zM100.381 387.738h58.63v58.632h-58.63v-58.632zm87.946 0h58.631v58.632h-58.631v-58.632zm87.946 0h58.631v58.632h-58.631v-58.632zm-87.946-87.945h58.631v58.631h-58.631v-58.631zm87.946 0h58.631v58.631h-58.631v-58.631zm87.946 0h58.63v58.631h-58.63v-58.631zm-263.838 0h58.63v58.631h-58.63v-58.631zM422.849 35.955V65.27h-58.63V35.955H159.011V65.27h-58.63V35.955H41.75V505h439.73V35.955h-58.631zm29.316 439.73h-381.1V153.216h381.1v322.469z"/><path d="M105.118 5.75h47.206v53.363h-47.206zM369.88 5.75h47.205v53.363H369.88z"/></symbol><symbol id="shapes-icon-checked" viewBox="0 0 26 26"><path d="M.3 14c-.2-.2-.3-.5-.3-.7s.1-.5.3-.7l1.4-1.4c.4-.4 1-.4 1.4 0l.1.1 5.5 5.9c.2.2.5.2.7 0L22.8 3.3h.1c.4-.4 1-.4 1.4 0l1.4 1.4c.4.4.4 1 0 1.4l-16 16.6c-.2.2-.4.3-.7.3-.3 0-.5-.1-.7-.3L.5 14.3.3 14z"/></symbol><symbol id="shapes-icon-close" viewBox="0 0 64 64"><path d="M28.941 31.786L.613 60.114a2.014 2.014 0 1 0 2.848 2.849l28.541-28.541 28.541 28.541c.394.394.909.59 1.424.59a2.014 2.014 0 0 0 1.424-3.439L35.064 31.786 63.41 3.438A2.014 2.014 0 1 0 60.562.589L32.003 29.15 3.441.59A2.015 2.015 0 0 0 .593 3.439l28.348 28.347z"/></symbol><symbol id="shapes-icon-map" viewBox="0 0 612 612"><path d="M516.316 337.52l94.233 193.581c3.832 7.873-.196 14.314-8.952 14.314H10.402c-8.756 0-12.785-6.441-8.952-14.314L95.684 337.52c1.499-3.079 5.528-5.599 8.952-5.599h80.801c2.49 0 5.853 1.559 7.483 3.442 5.482 6.335 11.066 12.524 16.634 18.65 5.288 5.815 10.604 11.706 15.878 17.735h-95.891c-3.425 0-7.454 2.519-8.952 5.599L58.163 505.589h495.67l-62.421-128.242c-1.498-3.08-5.527-5.599-8.953-5.599h-96.108c5.273-6.029 10.591-11.92 15.879-17.735 5.585-6.144 11.2-12.321 16.695-18.658 1.628-1.878 4.984-3.434 7.47-3.434h80.971c3.423 0 7.451 2.518 8.95 5.599zm-71.775-132.292c0 105.776-88.058 125.614-129.472 227.265-3.365 8.26-14.994 8.218-18.36-.04-37.359-91.651-112.638-116.784-127.041-198.432-14.181-80.379 41.471-159.115 122.729-166.796 82.64-7.812 152.144 56.979 152.144 138.003zm-65.427 0c0-40.436-32.779-73.216-73.216-73.216s-73.216 32.78-73.216 73.216c0 40.437 32.779 73.216 73.216 73.216s73.216-32.779 73.216-73.216z"/></symbol><symbol id="shapes-icon-phone" viewBox="0 0 512 512"><path d="M500.516 404.625l-79.067-79.078c-15.747-15.684-41.831-15.203-58.129 1.095l-39.832 39.832c-2.515-1.393-5.12-2.841-7.86-4.378-25.153-13.938-59.584-33.041-95.817-69.299-36.334-36.332-55.463-70.819-69.438-95.99-1.483-2.668-2.894-5.236-4.286-7.678l26.735-26.7 13.142-13.159c16.326-16.326 16.778-42.402 1.06-58.129l-79.07-79.088C92.242-3.657 66.148-3.179 49.823 13.146L27.537 35.559l.613.606c-7.47 9.533-13.72 20.531-18.36 32.389-4.286 11.287-6.955 22.06-8.176 32.849-10.438 86.558 29.114 165.661 136.457 273.013 148.377 148.368 267.956 137.162 273.111 136.611 11.244-1.34 22.005-4.026 32.95-8.277 11.757-4.594 22.748-10.826 32.271-18.279l.487.425 22.576-22.106c16.292-16.324 16.762-42.4 1.05-58.165zm-18.613 40.585l-9.949 9.932-3.963 3.809c-6.24 6.033-17.041 14.507-32.813 20.676-8.954 3.447-17.782 5.661-26.764 6.73-1.13.108-113.6 9.704-252.798-129.483C37.259 238.521 18.292 170.324 26.243 104.271c.995-8.754 3.191-17.564 6.702-26.771 6.222-15.863 14.688-26.655 20.675-32.905l13.756-13.892c6.629-6.647 16.968-7.155 23.028-1.094l79.067 79.067c6.051 6.068 5.573 16.407-1.066 23.074l-53.398 53.345 4.929 8.294c2.739 4.622 5.636 9.803 8.729 15.431 14.688 26.491 34.785 62.751 73.597 101.527 38.71 38.729 74.917 58.81 101.327 73.46 5.706 3.156 10.917 6.06 15.593 8.845l8.313 4.929 53.362-53.381c6.657-6.629 17.031-7.119 23.092-1.076l79.032 79.049c6.041 6.058 5.561 16.398-1.078 23.037z"/></symbol><symbol id="shapes-icon-speech" viewBox="0 0 511.626 511.626"><path d="M301.927 327.605c30.926-13.038 55.34-30.785 73.23-53.248 17.888-22.458 26.833-46.915 26.833-73.372 0-26.458-8.945-50.917-26.84-73.376-17.888-22.459-42.298-40.208-73.228-53.249-30.93-13.039-64.571-19.556-100.928-19.556-36.354 0-69.995 6.521-100.927 19.556-30.929 13.04-55.34 30.789-73.229 53.249C8.947 150.072 0 174.527 0 200.986c0 22.648 6.767 43.975 20.28 63.96 13.512 19.981 32.071 36.829 55.671 50.531-1.902 4.572-3.853 8.754-5.852 12.566a72.375 72.375 0 0 1-7.139 10.991 984.53 984.53 0 0 0-6.423 8.275c-1.523 1.998-3.997 4.812-7.425 8.422-3.427 3.617-5.617 5.996-6.567 7.135 0-.191-.381.24-1.143 1.287-.763 1.047-1.191 1.52-1.285 1.431-.096-.103-.477.373-1.143 1.42l-1 1.571-.715 1.423a6.114 6.114 0 0 0-.57 1.712c-.096.567-.144 1.19-.144 1.854s.094 1.28.288 1.854c.381 2.471 1.475 4.466 3.283 5.996 1.807 1.52 3.756 2.279 5.852 2.279h.857c9.515-1.332 17.701-2.854 24.552-4.569 29.312-7.61 55.771-19.797 79.372-36.545 17.129 3.046 33.879 4.568 50.247 4.568 36.357.013 70.002-6.502 100.931-19.542z"/><path d="M491.354 338.166c13.518-19.889 20.272-41.247 20.272-64.09 0-23.414-7.146-45.316-21.416-65.68-14.277-20.362-33.694-37.305-58.245-50.819 4.374 14.274 6.563 28.739 6.563 43.398 0 25.503-6.368 49.676-19.129 72.519-12.752 22.836-31.025 43.01-54.816 60.524-22.08 15.988-47.205 28.261-75.377 36.829-28.164 8.562-57.573 12.848-88.218 12.848-5.708 0-14.084-.377-25.122-1.137 38.256 25.119 83.177 37.685 134.756 37.685 16.371 0 33.119-1.526 50.251-4.571 23.6 16.755 50.06 28.931 79.37 36.549 6.852 1.718 15.037 3.237 24.554 4.568 2.283.191 4.381-.476 6.283-1.999 1.903-1.522 3.142-3.61 3.71-6.272-.089-1.143 0-1.77.287-1.861.281-.09.233-.712-.144-1.852-.376-1.144-.568-1.715-.568-1.715l-.712-1.424a13.68 13.68 0 0 0-.999-1.567c-.476-.66-.855-1.143-1.143-1.427-.28-.284-.705-.763-1.28-1.424-.568-.66-.951-1.092-1.143-1.283-.951-1.143-3.139-3.521-6.564-7.139-3.429-3.613-5.899-6.42-7.422-8.418a867.888 867.888 0 0 0-6.424-8.282 72.209 72.209 0 0 1-7.139-10.991c-1.998-3.806-3.949-7.995-5.852-12.56 23.602-13.716 42.156-30.513 55.667-50.409z"/></symbol><symbol id="shapes-icon-tag" viewBox="-39.8 10.2 585.7 354.2"><path d="M531.4 151.9L425.1 45.6c-19.5-19.5-58-35.4-85.5-35.4H10.4c-27.6 0-50.1 22.5-50.1 50.1v254c0 27.6 22.5 50.1 50.1 50.1h329.2c27.6 0 66-15.9 85.5-35.4l106.3-106.3c19.4-19.4 19.4-51.3 0-70.8zm-165 70.8c-19.5-19.5-19.5-51.2 0-70.7s51.2-19.5 70.7 0 19.5 51.2 0 70.7-51.1 19.5-70.7 0z"/></symbol><symbol id="shapes-icon-telephone" viewBox="0 0 34.546 34.546"><path d="M29.33 19.339c-2.326-.545-5.3-1.969-6.377-3.737-.603-.984-.666-2.094-.179-3.042.027-.051.074-.128.109-.188-.028-.209.021-.486.172-.847l.02-.044H11.122l.014.032.001.002c.268.418.502.792.627 1.033.495.961.431 2.07-.17 3.055-1.08 1.77-4.053 3.193-6.381 3.738L4.57 30.124c-.07 1.183.705 2.149 1.723 2.149h21.958c1.018 0 1.792-.967 1.721-2.149l-.642-10.785zm-15.647 7.426h-2.062a.689.689 0 0 1 0-1.376h2.062a.69.69 0 0 1 0 1.376zm0-2.622h-2.062a.688.688 0 1 1 0-1.375h2.062a.687.687 0 1 1 0 1.375zm0-2.622h-2.062a.688.688 0 1 1 0-1.376h2.062a.69.69 0 0 1 0 1.376zm4.621 5.244h-2.061a.689.689 0 0 1 0-1.376h2.062a.69.69 0 0 1 .688.688.691.691 0 0 1-.689.688zm0-2.622h-2.061a.688.688 0 1 1 0-1.375h2.062a.687.687 0 1 1-.001 1.375zm0-2.622h-2.061a.688.688 0 1 1 0-1.376h2.062a.69.69 0 0 1 .688.688.691.691 0 0 1-.689.688zm4.62 5.244h-2.062a.688.688 0 0 1 0-1.376h2.062a.688.688 0 1 1 0 1.376zm0-2.622h-2.062a.688.688 0 0 1 0-1.375h2.062a.686.686 0 1 1 0 1.375zm0-2.622h-2.062a.688.688 0 0 1 0-1.376h2.062a.688.688 0 1 1 0 1.376zm11.448-8.407c-.043.216-.045.441-.13.646-.497 1.202-1.429 2.197-2.115 3.305-.885 1.414-8.406-1.634-7.437-3.521.365-.698 1.789-2.626 1.896-3.401.098-.692-.818-1.233-1.664-1.302-2.232-.181-5.083-.017-7.452-.002v.002l-.198-.001-.197.001v-.002c-2.369-.015-5.22-.178-7.452.002-.846.069-1.762.61-1.665 1.302.108.775 1.531 2.703 1.896 3.401.971 1.887-6.55 4.935-7.435 3.521C1.731 15.957.801 14.962.303 13.76c-.084-.205-.086-.43-.129-.646-1.104-4.93 3.148-9.96 9.551-10.476 2.445-.198 4.896-.31 7.35-.354v-.012c.066.001.131.005.197.006.065-.001.131-.005.198-.006v.012c2.452.044 4.903.156 7.35.354 6.402.515 10.654 5.547 9.552 10.476z"/></symbol><symbol id="shapes-icon-warning" viewBox="0 0 367.011 367.01"><path d="M365.221 329.641L190.943 27.788a8.636 8.636 0 0 0-14.959 0L1.157 330.584a8.64 8.64 0 0 0 0 8.639 8.633 8.633 0 0 0 7.48 4.318h349.736a8.636 8.636 0 0 0 6.848-13.9zm-341.622-3.375L183.464 49.381l159.864 276.885H23.599z"/><path d="M174.826 136.801v123.893a8.636 8.636 0 0 0 8.638 8.638 8.635 8.635 0 0 0 8.637-8.638V136.801c0-4.766-3.867-8.637-8.637-8.637-4.771.001-8.638 3.872-8.638 8.637zM183.464 279.393c-5.922 0-10.725 4.8-10.725 10.722s4.803 10.729 10.725 10.729c5.921 0 10.725-4.809 10.725-10.729 0-5.922-4.803-10.722-10.725-10.722z"/></symbol></svg>