<?xml version="1.0" encoding="utf-8"?>
<!-- Generator: Adobe Illustrator 16.0.0, SVG Export Plug-In . SVG Version: 6.00 Build 0)  -->
<!DOCTYPE svg PUBLIC "-//W3C//DTD SVG 1.1//EN" "http://www.w3.org/Graphics/SVG/1.1/DTD/svg11.dtd">
<svg version="1.1" id="Calque_1" xmlns="http://www.w3.org/2000/svg" xmlns:xlink="http://www.w3.org/1999/xlink" x="0px" y="0px"
	 width="1400px" height="300px" viewBox="0 0 1400 300" enable-background="new 0 0 1400 300" xml:space="preserve">
<g>
	<g>
		<polygon fill="#FFFFFF" points="99.5,188.906 218.5,129.906 262.5,194.906 305.5,207.906 384.5,148.906 425.5,112.906
			467.5,207.906 501.5,152.906 519.5,198.906 617.5,165.906 752.5,135.906 883.5,135.906 1018.5,230.906 1052.5,202.906
			1073.5,220.906 1088.5,236.906 1202.5,122.906 1367.558,279.084 1319.5,324.906 80.5,344.906 -19.124,261.247 		"/>
		<g>
			<path fill="#FFFFFF" d="M683.808,114.647v2.943h4.317v-2.943h5.496v2.943h4.316v-2.76h5.5v2.76v5.483v0.014h-25.126v-0.198
				v-5.299v-2.943H683.808z M647.416,123.074v-5.483v-2.76h-5.497v2.76h-4.317v-2.943h-5.497v2.943h-4.317v-2.943h-5.497v2.943
				v5.299v0.198h25.124V123.074L647.416,123.074z M701.593,125.047v32.566c-2.78-1.563-5.84-2.425-9.034-2.425
				c-0.465,0-0.938,0.022-1.439,0.069c-2.139-2.166-4.83-3.344-7.695-3.344c-0.759,0-1.527,0.101-2.327,0.308
				c-5.212-4.133-11.63-6.396-18.224-6.396c-4.825,0-9.563,1.212-13.831,3.512c-2.199-2.523-5.156-3.979-8.243-3.979
				c-5.412,0-9.99,4.213-11.396,10.243c-1.835,0.396-3.6,1.1-5.269,2.038v-23.762v-8.832h21.529v8.832h6.437v-29.585h-6.899
				l16.72-16.722V74.906h1.886v0.708c5.172,9.291,10.345-6.626,15.52,3.921c-5.175-7.534-10.349,11.396-15.52,5.117v2.921
				l16.72,16.722h-6.899v29.585h6.438v-8.832L701.593,125.047L701.593,125.047z M667.601,111.94c0-2.617-2.118-4.738-4.738-4.738
				c-2.619,0-4.737,2.118-4.737,4.738v9.31h9.473L667.601,111.94L667.601,111.94z M692.559,157.543
				c-0.807,0-1.598,0.084-2.375,0.203c-1.723-2.148-4.113-3.478-6.76-3.478c-0.998,0-1.937,0.239-2.84,0.589
				c-4.777-4.156-10.954-6.676-17.713-6.676c-5.319,0-10.269,1.58-14.47,4.266c-1.736-2.856-4.482-4.732-7.606-4.732
				c-4.763,0-8.677,4.318-9.369,9.939c-5.499,0.623-10.313,4.116-13.454,9.252h89.785
				C704.283,161.228,698.777,157.543,692.559,157.543z"/>
		</g>
		<g>
			<g>
				<g>
					<g>
						<polygon fill="#FFFFFF" points="830.692,132.039 820.979,111.902 811.267,132.039 819.994,132.039 819.994,136.406
							821.961,136.406 821.961,132.039"/>
					</g>
					<g>
						<polygon fill="#FFFFFF" points="847.009,133.378 839.544,117.906 832.083,133.378 838.789,133.378 838.789,136.733
							840.303,136.733 840.303,133.378"/>
					</g>
					<g>
						<polygon fill="#FFFFFF" points="814.509,134.378 807.044,118.906 799.583,134.378 806.289,134.378 806.289,137.733
							807.803,137.733 807.803,134.378"/>
					</g>
					<g>
						<polygon fill="#FFFFFF" points="572.409,180.735 561.752,161.082 553.005,181.657 561.723,181.243 561.93,185.605
							563.895,185.512 563.688,181.149"/>
					</g>
					<g>
						<polygon fill="#FFFFFF" points="595.009,172.964 587.544,157.492 580.083,172.964 586.789,172.964 586.789,176.319
							588.303,176.319 588.303,172.964"/>
					</g>
					<g>
						<polygon fill="#FFFFFF" points="882.009,133.378 874.544,117.906 867.083,133.378 873.789,133.378 873.789,136.733
							875.303,136.733 875.303,133.378"/>
					</g>
				</g>
			</g>
		</g>
		<g>
			<g>
				<path fill="#FFFFFF" d="M269.962,200.26c0.483,0,0.937-0.138,1.335-0.355v2.767h0.892v-2.955
					c0.459,0.337,1.022,0.545,1.639,0.545c1.329,0,2.435-0.934,2.708-2.181c0.503-0.08,0.96-0.294,1.337-0.603v-1.201
					c-0.633,0.186-1.276,0.278-1.931,0.278c-1.93,0-3.724-0.765-5.088-2.159c-2.655-1.077-4.427-3.664-4.456-6.526
					c-0.466,0.426-0.793,1.009-0.875,1.685c-0.083,0.66,0.086,1.288,0.414,1.811c-0.574,0.51-0.938,1.244-0.938,2.066
					c0,0.984,0.512,1.843,1.281,2.336c-0.115,0.309-0.188,0.637-0.188,0.984c0,1.2,0.763,2.209,1.826,2.598
					C268.427,199.905,269.15,200.26,269.962,200.26z"/>
				<path fill="#FFFFFF" d="M295.38,192.669c0-1.039-0.576-1.938-1.423-2.413c-0.776,0.619-1.684,1.079-2.69,1.335
					c-0.937,2.911-3.694,4.961-6.794,4.961c-0.548,0-1.091-0.071-1.616-0.199c-0.023,0.132-0.036,0.261-0.036,0.398
					c0,1.198,0.762,2.209,1.827,2.598c0.51,0.556,1.234,0.909,2.045,0.909c0.483,0,0.938-0.138,1.333-0.355v2.767h0.896v-2.956
					c0.458,0.34,1.019,0.547,1.635,0.547c1.333,0,2.437-0.936,2.709-2.181c1.324-0.212,2.341-1.35,2.341-2.734
					c0-0.572-0.177-1.103-0.472-1.545C295.288,193.454,295.38,193.074,295.38,192.669z"/>
				<path fill="#FFFFFF" d="M280.855,193.788c1.016,0.749,2.259,1.205,3.618,1.205c2.933,0,5.374-2.059,5.974-4.811
					c2.922-0.462,5.161-2.972,5.161-6.024c0-1.263-0.384-2.435-1.04-3.411c0.341-0.761,0.541-1.603,0.541-2.49
					c0-2.629-1.667-4.852-3.993-5.719c0.483-0.877,0.788-1.875,0.788-2.946c0-3.38-2.74-6.121-6.123-6.121
					c-1.21,0-2.329,0.362-3.279,0.966c-1.064-1.811-3.009-3.041-5.262-3.041c-2.897,0-5.305,2.015-5.944,4.715
					c-2.636,0.41-4.797,2.493-5.143,5.27c-0.179,1.459,0.19,2.843,0.917,3.997c-1.261,1.121-2.072,2.738-2.072,4.559
					c0,2.17,1.131,4.06,2.831,5.15c-0.258,0.68-0.416,1.405-0.416,2.174c0,2.641,1.679,4.871,4.022,5.73
					c1.122,1.223,2.716,2.005,4.507,2.005c1.073,0,2.07-0.299,2.945-0.785v8.938h-11.72v1.082h25.414v-1.082h-11.729v-9.359H280.855
					z"/>
			</g>
		</g>
		<polygon fill="#FFFFFF" stroke="#FFFFFF" stroke-width="4" stroke-miterlimit="10" points="174.629,151.657 209,149.906
			247.904,173.344 218.5,129.906 		"/>
		<polygon fill="#FFFFFF" stroke="#FFFFFF" stroke-width="4" stroke-miterlimit="10" points="390.649,143.507 403.5,157.492
			412.5,143.507 436,161.396 439.029,143.507 425.5,112.906 		"/>
		<polygon fill="#FFFFFF" stroke="#FFFFFF" stroke-width="4" stroke-miterlimit="10" points="1157,168.406 1204.5,148.906
			1231.928,150.933 1202.5,122.906 		"/>
	</g>
	<polyline fill="#FFFFFF" points="-19.248,268.585 20.625,268.585 -58.872,268.585 	"/>
	<polygon fill="#FFFFFF" points="-58.872,268.585 -58.872,354.08 1445.554,361.58 1454.553,268.585 1333.059,268.585
		1286.562,237.086 1243.063,307.583 86.621,241.586 38.624,250.586 	"/>
</g>
</svg>
