<?xml version="1.0" standalone="no"?>
<!DOCTYPE svg PUBLIC "-//W3C//DTD SVG 20010904//EN"
 "http://www.w3.org/TR/2001/REC-SVG-20010904/DTD/svg10.dtd">
<svg version="1.0" xmlns="http://www.w3.org/2000/svg"
 width="16.000000pt" height="16.000000pt" viewBox="0 0 16.000000 16.000000"
 preserveAspectRatio="xMidYMid meet">
<metadata>
Created by potrace 1.11, written by Peter Selinger 2001-2013
</metadata>
<g transform="translate(0.000000,16.000000) scale(0.003181,-0.003181)"
fill="#000000" stroke="none">
<path d="M2324 4842 c-306 -305 -512 -526 -734 -787 -47 -55 -95 -111 -107
-125 -33 -38 -165 -205 -188 -236 -11 -15 -25 -32 -30 -38 -22 -24 -156 -208
-237 -326 -191 -279 -318 -506 -411 -735 -116 -283 -145 -464 -123 -743 3 -42
8 -87 10 -98 2 -12 7 -37 10 -55 3 -19 10 -59 16 -89 6 -30 14 -66 16 -79 13
-65 90 -272 136 -368 269 -557 750 -949 1345 -1097 94 -24 132 -31 218 -42 22
-3 56 -7 75 -10 45 -6 297 -6 375 1 83 7 224 32 320 56 473 120 878 405 1169
823 36 51 66 96 66 99 0 3 16 32 35 64 48 82 130 276 164 391 59 198 84 368
84 572 0 127 -4 159 -38 304 -37 159 -177 486 -283 660 -23 37 -42 70 -42 72
0 5 -190 293 -247 374 -52 76 -249 337 -263 350 -3 3 -35 41 -70 85 -54 68
-222 266 -255 301 -15 16 -137 153 -158 178 -99 115 -653 676 -668 676 -3 0
-86 -80 -185 -178z"/>
</g>
</svg>
